<svg id="Layer_1" enable-background="new 0 0 512 512" height="512" viewBox="0 0 512 512" width="512" xmlns="http://www.w3.org/2000/svg"><g><g><path d="m343.761 79.999h-107c-8.284 0-15-6.716-15-15s6.716-15 15-15h107c8.284 0 15 6.716 15 15s-6.716 15-15 15z" fill="#f6efea"/></g><g><path d="m234.381 129.999h-61c-8.284 0-15-6.716-15-15v-99.999c0-8.284 6.716-15 15-15h61c8.284 0 15 6.716 15 15v99.999c0 8.284-6.716 15-15 15z" fill="#fdbf00"/></g><path d="m234.381 0h-30.5v129.999h30.5c8.284 0 15-6.716 15-15v-99.999c0-8.284-6.716-15-15-15z" fill="#ff8856"/><g><path d="m258.381 214h-109c-8.284 0-15-6.716-15-15v-54.001c0-24.813 20.187-45 45-45h49c24.813 0 45 20.187 45 45v54.001c0 8.284-6.716 15-15 15z" fill="#ffde3b"/></g><path d="m228.381 99.999h-24.5v114.001h54.5c8.284 0 15-6.716 15-15v-54.001c0-24.813-20.187-45-45-45z" fill="#fcba00"/><g><path d="m357.762 512h-307.762c-24.813 0-45-20.187-45-45v-116.37c0-52.856 20.746-102.684 58.415-140.303 37.665-37.612 87.55-58.327 140.466-58.327s102.801 20.715 140.466 58.329c37.669 37.618 58.415 87.445 58.415 140.301v116.37c0 24.813-20.187 45-45 45z" fill="#fff4f4"/></g><path d="m344.347 210.329c-37.665-37.614-87.55-58.329-140.466-58.329v360h153.881c24.813 0 45-20.187 45-45v-116.37c0-52.856-20.746-102.683-58.415-140.301z" fill="#f6efea"/><path d="m35 350.63v116.37c0 8.271 6.729 15 15 15h307.762c8.271 0 15-6.729 15-15v-116.37c0-8.591-.651-17.032-1.898-25.281h-333.966c-1.247 8.249-1.898 16.69-1.898 25.281z" fill="#fe7cb8"/><path d="m370.864 325.349h-166.983v156.651h153.881c8.271 0 15-6.729 15-15v-116.37c0-8.591-.651-17.032-1.898-25.281z" fill="#ff3a80"/><g><g><path d="m442.001 129.999h-42.24c-35.841 0-65-29.158-65-64.999s29.159-65 65-65h42.24c35.841 0 64.999 29.158 64.999 64.999s-29.158 65-64.999 65z" fill="#fe7cb8"/></g></g><g><path d="m203.881 429.13c-21.057 0-49.684-29.376-55.208-35.266-12.994-13.85-34.792-41.178-34.792-68.593 0-30.044 24.443-54.487 54.487-54.487 13.374 0 25.841 4.756 35.513 13.086 9.672-8.33 22.139-13.086 35.513-13.086 30.044 0 54.487 24.443 54.487 54.487 0 29.664-21.893 56.758-34.942 70.269-14.968 15.495-38.369 33.59-55.058 33.59z" fill="#ff415b"/></g><path d="m239.394 270.784c-13.374 0-25.841 4.756-35.513 13.086v145.26c16.689 0 40.09-18.095 55.058-33.59 13.05-13.511 34.942-40.604 34.942-70.269 0-30.043-24.443-54.487-54.487-54.487z" fill="#e50058"/></g></svg>