<svg id="Capa_1" enable-background="new 0 0 511.999 511.999" height="512" viewBox="0 0 511.999 511.999" width="512" xmlns="http://www.w3.org/2000/svg"><g><path d="m330.851 400.307h-149.703l10.121 66.234h129.461z" fill="#4e5660"/><path d="m185.36 427.87h141.279l4.212-27.563h-149.703z" fill="#383c43"/><path d="m351.726 511.999h-191.453c-7.942 0-13.84-7.358-12.111-15.11l3.32-14.883c2.016-9.038 10.035-15.465 19.295-15.465h170.445c9.26 0 17.279 6.427 19.295 15.465l3.32 14.883c1.729 7.752-4.169 15.11-12.111 15.11z" fill="#8daee1"/><path d="m256 89.103c-1.919 0-3.839-.732-5.303-2.196l-74.104-74.104c-2.929-2.93-2.929-7.678 0-10.607 2.929-2.928 7.678-2.928 10.606 0l68.801 68.801 68.8-68.801c2.93-2.928 7.678-2.928 10.607 0 2.929 2.93 2.929 7.678 0 10.607l-74.104 74.104c-1.464 1.464-3.384 2.196-5.303 2.196z" fill="#4e5660"/><path d="m15.781 344.338v-206.767c0-30.911 25.058-55.969 55.969-55.969h368.5c30.911 0 55.969 25.058 55.969 55.969v206.766c0 30.911-25.058 55.969-55.969 55.969h-368.5c-30.911.001-55.969-25.057-55.969-55.968z" fill="#8daee1"/><path d="m170.595 81.603h-98.845c-30.911 0-55.969 25.058-55.969 55.969v206.766c0 30.911 25.058 55.969 55.969 55.969h130.986c-50.455-57.207-57.49-213.2-32.141-318.704z" fill="#6a95d6"/><path d="m437.562 324.98h-363.125c-8.59 0-15.553-6.963-15.553-15.553v-169.169c0-8.59 6.963-15.553 15.553-15.553h363.126c8.59 0 15.553 6.963 15.553 15.553v169.169c-.001 8.59-6.964 15.553-15.554 15.553z" fill="#f6ee86"/><path d="m162.417 124.705h-87.98c-8.59 0-15.553 6.963-15.553 15.553v169.169c0 8.59 6.963 15.553 15.553 15.553h94.022c-14.22-58.66-15.565-134.477-6.042-200.275z" fill="#eed076"/><g><path d="m188.709 260.2c-.054 17.305-17.715 31.279-39.445 31.21-21.731-.068-39.303-14.152-39.249-31.457s17.714-31.279 39.445-31.211c21.731.069 39.304 14.153 39.249 31.458z" fill="#eda1ab"/><path d="m323.289 260.622c-.054 17.305 17.518 31.389 39.249 31.457s39.391-13.905 39.445-31.211c.054-17.305-17.518-31.389-39.249-31.458-21.73-.067-39.39 13.906-39.445 31.212z" fill="#eda1ab"/><g fill="#4e5660"><path d="m287.798 236.435c.061-19.605-14.136-21.492-31.656-21.547s-31.729 1.743-31.791 21.348c-.061 19.605 14.092 35.543 31.612 35.598 17.521.055 31.774-15.794 31.835-35.399z"/><path d="m191.129 233.611c-.008 0-.016 0-.024 0-4.142-.013-7.489-3.382-7.476-7.523.009-3-1.149-5.823-3.264-7.95-2.114-2.128-4.93-3.304-7.929-3.314-.012 0-.024 0-.036 0-6.175 0-11.209 5.014-11.228 11.193-.013 4.135-3.369 7.477-7.499 7.477-.008 0-.016 0-.024 0-4.142-.013-7.489-3.382-7.476-7.523.046-14.435 11.804-26.146 26.228-26.146h.083c7.006.021 13.584 2.771 18.523 7.74 4.938 4.97 7.645 11.564 7.623 18.57-.015 4.134-3.37 7.476-7.501 7.476z"/><path d="m358.541 234.135c-.009 0-.017 0-.024 0-4.142-.013-7.489-3.381-7.477-7.523.02-6.191-5.002-11.244-11.192-11.264-.012 0-.025 0-.036 0-2.986 0-5.795 1.158-7.914 3.264-2.127 2.114-3.304 4.931-3.314 7.93-.013 4.134-3.368 7.477-7.499 7.477-.009 0-.017 0-.025 0-4.142-.013-7.489-3.381-7.477-7.524.045-14.434 11.804-26.146 26.228-26.146h.083c14.462.045 26.19 11.848 26.145 26.311-.012 4.132-3.367 7.475-7.498 7.475z"/></g></g><g fill="#fff"><g><path d="m111.843 370.143h-20.435c-4.142 0-7.5-3.357-7.5-7.5s3.358-7.5 7.5-7.5h20.435c4.142 0 7.5 3.357 7.5 7.5s-3.358 7.5-7.5 7.5z"/><path d="m170.961 370.143h-20.435c-4.142 0-7.5-3.357-7.5-7.5s3.358-7.5 7.5-7.5h20.435c4.142 0 7.5 3.357 7.5 7.5s-3.358 7.5-7.5 7.5z"/></g><circle cx="256.075" cy="362.643" r="7.507"/></g></g></svg>