<?xml version="1.0" encoding="iso-8859-1"?>
<!-- Generator: Adobe Illustrator 19.0.0, SVG Export Plug-In . SVG Version: 6.00 Build 0)  -->
<svg version="1.1" id="Capa_1" xmlns="http://www.w3.org/2000/svg" xmlns:xlink="http://www.w3.org/1999/xlink" x="0px" y="0px"
	 viewBox="0 0 512 512" style="enable-background:new 0 0 512 512;" xml:space="preserve">
<g>
	<path style="fill:#08469C;" d="M253.056,150.087c-8.282,0-14.996-6.714-14.996-14.996v-74.98c0-16.061,6.583-31.207,18.538-42.646
		C268.282,6.284,283.522,0.127,299.51,0.127c33.075,0,59.984,26.909,59.984,59.984c0,16.538,13.454,29.992,29.992,29.992
		s29.992-13.454,29.992-29.992c0-33.075,26.909-59.984,59.984-59.984h14.996c8.282,0,14.996,6.714,14.996,14.996
		s-6.714,14.996-14.996,14.996h-14.996c-16.538,0-29.992,13.454-29.992,29.992c0,33.075-26.909,59.984-59.984,59.984
		s-59.984-26.909-59.984-59.984c0-16.538-13.454-29.992-29.992-29.992c-17.052,0-31.459,13.734-31.459,29.992v74.98
		C268.052,143.372,261.337,150.087,253.056,150.087z"/>
	<path style="fill:#08469C;" d="M132.979,270.995h-14.996v-14.996c0-8.282-6.714-14.996-14.996-14.996s-14.996,6.714-14.996,14.996
		v14.996H75.849c-8.282,0-14.996,6.714-14.996,14.996s6.714,14.996,14.996,14.996h12.142v14.996c0,8.282,6.714,14.996,14.996,14.996
		s14.996-6.714,14.996-14.996v-14.996h14.996c8.282,0,14.996-6.714,14.996-14.996S141.26,270.995,132.979,270.995z"/>
</g>
<circle style="fill:#32D736;" cx="406.162" cy="256" r="14.996"/>
<circle style="fill:#B758CE;" cx="436.154" cy="285.992" r="14.996"/>
<circle style="fill:#17ACE8;" cx="406.162" cy="315.984" r="14.996"/>
<circle style="fill:#FD003A;" cx="376.17" cy="285.992" r="14.996"/>
<g>
	<path style="fill:#08469C;" d="M225.809,300.987h-29.992c-8.282,0-14.996-6.714-14.996-14.996s6.714-14.996,14.996-14.996h29.992
		c8.282,0,14.996,6.714,14.996,14.996S234.091,300.987,225.809,300.987z"/>
	<path style="fill:#08469C;" d="M316.184,300.987h-29.992c-8.282,0-14.996-6.714-14.996-14.996s6.714-14.996,14.996-14.996h29.992
		c8.282,0,14.996,6.714,14.996,14.996S324.466,300.987,316.184,300.987z"/>
</g>
<g>
	<path style="fill:#A8AFF1;" d="M286.332,393.783c-1.279,0-2.579-0.165-3.874-0.51c-7.804-2.081-15.823-3.169-23.835-3.234
		c-1.364-0.011-2.73-0.017-4.1-0.017h-0.595c-8.199,0.01-16.631,1.106-24.383,3.17c-8,2.131-16.218-2.628-18.35-10.632
		c-2.13-8.003,2.629-16.219,10.632-18.35c10.223-2.722,21.31-4.168,32.065-4.181h0.631c1.452,0,2.9,0.006,4.344,0.018
		c10.537,0.085,21.075,1.514,31.321,4.246c8.002,2.134,12.76,10.352,10.624,18.354C299.022,389.356,292.96,393.783,286.332,393.783z
		"/>
	<path style="fill:#A8AFF1;" d="M511.58,362.943c-2.513-65.258-16.128-134.149-27.66-165.833c-0.354-0.972-0.717-1.936-1.09-2.892
		c-11.124-28.552-43.872-43.42-74.552-33.849c-28.651,8.939-67.432,15.011-110.235,17.476v-42.755
		c0-8.282-6.714-14.996-14.996-14.996H224.13c-8.282,0-14.996,6.714-14.996,14.996v42.65c-41.798-2.5-79.671-8.423-107.821-17.078
		c-29.594-9.1-61.286,5.659-72.163,33.6c-0.366,0.942-0.724,1.891-1.07,2.843C16.548,228.794,2.932,297.685,0.419,362.943
		C-2.838,447.507,12.9,496.715,47.198,509.197c17.365,6.319,38.054,1.42,61.494-14.563c17.877-12.19,37.816-31.031,59.259-55.998
		c5.397-6.282,4.678-15.751-1.605-21.146c-6.283-5.396-15.75-4.678-21.146,1.606c-45.28,52.719-75.016,66.553-87.744,61.919
		c-11.773-4.285-18.234-21.916-21.581-35.952c-4.846-20.322-6.743-48.319-5.485-80.964c2.309-59.953,14.97-126.771,25.876-156.737
		c0.272-0.747,0.552-1.49,0.837-2.222c5.203-13.367,20.754-20.31,35.397-15.809c34.033,10.464,80.761,17.202,131.396,19.153
		c0.079,0.001,0.156,0.012,0.236,0.012c0.009,0,0.018-0.001,0.028-0.001c9.993,0.382,20.136,0.581,30.365,0.581
		c62.501,0,121.799-7.317,162.688-20.074c15.7-4.898,32.246,2.177,37.675,16.109c0.29,0.745,0.573,1.495,0.85,2.255
		c10.906,29.963,23.566,96.781,25.875,156.734c1.258,32.646-0.64,60.643-5.486,80.964c-3.347,14.036-9.808,31.668-21.581,35.952
		c-12.729,4.632-42.463-9.2-87.743-61.919c-5.396-6.282-14.864-7.002-21.146-1.605c-6.282,5.396-7.001,14.864-1.605,21.146
		c21.444,24.967,41.382,43.808,59.259,55.998c16.828,11.475,32.236,17.236,46.016,17.236c5.416,0,10.579-0.89,15.478-2.673
		C499.1,496.714,514.837,447.507,511.58,362.943z M239.126,178.927v-28.84h28.925v28.872c-4.486,0.078-8.996,0.123-13.528,0.123
		C249.361,179.081,244.227,179.027,239.126,178.927z"/>
</g>
<g>
	<path style="fill:#08469C;" d="M180.821,450.947c-33.075,0-59.984-26.909-59.984-59.984s26.909-59.984,59.984-59.984
		s59.984,26.909,59.984,59.984S213.896,450.947,180.821,450.947z M180.821,360.971c-16.538,0-29.992,13.454-29.992,29.992
		s13.454,29.992,29.992,29.992s29.992-13.454,29.992-29.992S197.358,360.971,180.821,360.971z"/>
	<path style="fill:#08469C;" d="M331.18,450.947c-33.075,0-59.984-26.909-59.984-59.984s26.909-59.984,59.984-59.984
		s59.984,26.909,59.984,59.984S364.255,450.947,331.18,450.947z M331.18,360.971c-16.538,0-29.992,13.454-29.992,29.992
		s13.454,29.992,29.992,29.992s29.992-13.454,29.992-29.992S347.717,360.971,331.18,360.971z"/>
</g>
<g>
</g>
<g>
</g>
<g>
</g>
<g>
</g>
<g>
</g>
<g>
</g>
<g>
</g>
<g>
</g>
<g>
</g>
<g>
</g>
<g>
</g>
<g>
</g>
<g>
</g>
<g>
</g>
<g>
</g>
</svg>
