<?xml version="1.0" encoding="iso-8859-1"?>
<!-- Generator: Adobe Illustrator 19.0.0, SVG Export Plug-In . SVG Version: 6.00 Build 0)  -->
<svg version="1.1" id="Capa_1" xmlns="http://www.w3.org/2000/svg" xmlns:xlink="http://www.w3.org/1999/xlink" x="0px" y="0px"
	 viewBox="0 0 512 512" style="enable-background:new 0 0 512 512;" xml:space="preserve">
<circle style="fill:#FF3501;" cx="256" cy="256" r="256"/>
<path style="fill:#C70024;" d="M511.397,272.92l-93.243-93.243l-13.461,23.558l-61.436-61.436
	c-3.788-5.062-9.813-8.353-16.622-8.353l0,0c-4.6,0-8.836,1.514-12.278,4.045l-14.551-14.551c-0.017-0.017-0.033-0.033-0.05-0.05
	l-0.696-0.696l-0.033,0.033c-3.686-3.344-8.564-5.397-13.932-5.397c-6.81,0-12.835,3.291-16.622,8.354l-8.258-8.258
	c-3.785-5.091-9.828-8.405-16.659-8.405c-8.958,0-16.569,5.682-19.483,13.629l-5.905-5.905c-3.808-4.708-9.624-7.726-16.151-7.726
	l0,0c-11.471,0-20.769,9.298-20.769,20.769v33.648c-0.687,0.139-1.362,0.312-2.022,0.516c-8.455,2.63-14.593,10.516-14.593,19.836
	v20.769c-0.139,4.351-0.135,8.23,0.026,11.773c0.078,3.239,0.396,6.458,0.947,9.632c1.214,7.512,3.504,13.656,7.105,20.415
	l-66.206-66.206l-50.882,89.043l40.475,40.475l-2.313,23.128L272.89,511.428C400.788,503.081,503.049,400.82,511.397,272.92z"/>
<rect x="197.899" y="204.065" style="fill:#FFFFFF;" width="116.313" height="199.413"/>
<rect x="256.044" y="204.065" style="fill:#E1E3FA;" width="58.157" height="199.413"/>
<rect x="189.585" y="314.435" style="fill:#3E3D42;" width="132.931" height="89.043"/>
<rect x="256.044" y="314.435" style="fill:#2D2D30;" width="66.463" height="89.043"/>
<path style="fill:#FFA733;" d="M326.667,162.523h-12.462h-20.769h-49.848h-45.694h-12.462c-11.471,0-20.769,9.298-20.769,20.769l0,0
	v20.769c-0.718,22.442,2.343,32.46,11.168,47.281l22.063,35.798h66.463h8.308h41.539l22.063-35.798
	c7.345-14.679,11.168-30.867,11.168-47.281v-20.769l0,0C347.436,171.822,338.138,162.523,326.667,162.523z"/>
<g>
	<path style="fill:#FFC477;" d="M202.05,224.831L202.05,224.831c-11.471,0-20.769-9.298-20.769-20.769v-74.771
		c0-11.471,9.298-20.769,20.769-20.769l0,0c11.471,0,20.769,9.298,20.769,20.769v74.771
		C222.819,215.533,213.52,224.831,202.05,224.831z"/>
	<path style="fill:#FFC477;" d="M243.588,224.831L243.588,224.831c-11.471,0-20.769-9.298-20.769-20.769v-74.771
		c0-11.471,9.298-20.769,20.769-20.769l0,0c11.471,0,20.769,9.298,20.769,20.769v74.771
		C264.358,215.533,255.059,224.831,243.588,224.831z"/>
	<path style="fill:#FFC477;" d="M285.128,224.831L285.128,224.831c-11.471,0-20.769-9.298-20.769-20.769v-66.463
		c0-11.471,9.298-20.769,20.769-20.769l0,0c11.471,0,20.769,9.298,20.769,20.769v66.463
		C305.898,215.533,296.598,224.831,285.128,224.831z"/>
	<path style="fill:#FFC477;" d="M326.667,224.831L326.667,224.831c-11.471,0-20.769-9.298-20.769-20.769v-49.848
		c0-11.471,9.298-20.769,20.769-20.769l0,0c11.471,0,20.769,9.298,20.769,20.769v49.848
		C347.436,215.533,338.138,224.831,326.667,224.831z"/>
</g>
<path style="fill:#FFDAAA;" d="M243.588,162.523h-58.155c-11.471,0-20.769,9.298-20.769,20.769l0,0v20.769v10.202
	c0,11.164,2.851,22.142,8.282,31.895l2.886,5.183l22.063,35.798l0,0h58.155l0,0V253.91c0-18.547-12.295-36.444-30.128-41.54
	l-19.72-6.41l0,0v-1.898l0,0h37.385c11.471,0,20.769-9.298,20.769-20.769l0,0C264.358,171.822,255.059,162.523,243.588,162.523z"/>
<polygon style="fill:#FFA733;" points="106.534,179.677 55.652,268.721 100.174,268.721 93.814,332.323 144.696,243.279 
	100.174,243.279 "/>
<polygon style="fill:#FFDA44;" points="62.921,256 137.426,256 144.696,243.279 100.174,243.279 106.534,179.677 "/>
<polygon style="fill:#FFA733;" points="418.186,179.677 367.304,268.721 411.826,268.721 405.466,332.323 456.348,243.279 
	411.826,243.279 "/>
<polygon style="fill:#FFDA44;" points="374.574,256 449.079,256 456.348,243.279 411.826,243.279 418.186,179.677 "/>
<g>
</g>
<g>
</g>
<g>
</g>
<g>
</g>
<g>
</g>
<g>
</g>
<g>
</g>
<g>
</g>
<g>
</g>
<g>
</g>
<g>
</g>
<g>
</g>
<g>
</g>
<g>
</g>
<g>
</g>
</svg>
