<svg id="Layer_3" enable-background="new 0 0 64 64" height="512" viewBox="0 0 64 64" width="512" xmlns="http://www.w3.org/2000/svg"><g><path d="m33 49h27v-5h2v-25h-52v30h19v-2c0-1.105.895-2 2-2 1.105 0 2 .895 2 2z" fill="#2b74ca"/><path d="m10 19v21.282c4.046 1.733 8.633 2.718 13.5 2.718 16.091 0 29.163-10.701 29.485-24z" fill="#3d98f7"/><g fill="#4d5d7a"><path d="m15 24h8v8h-8z"/><path d="m15 36h8v8h-8z"/><path d="m51 24h4v8h-4z"/><path d="m51 36h4v8h-4z"/></g><path d="m28 23h18v18h-18z" fill="#c7e2fc"/><circle cx="37" cy="32" fill="#8892a0" r="6"/><g><path d="m36.707 38.707-1.414-1.414 1-1c.456-.456.707-1.062.707-1.707v-.172c0-.16-.016-.318-.047-.472l1.961-.394c.057.284.086.576.086.866v.172c0 1.18-.459 2.288-1.293 3.122z" fill="#4d5d7a"/></g><g><path d="m35.086 30.452c-.057-.284-.086-.576-.086-.866v-.172c0-1.18.459-2.288 1.293-3.122l1-1 1.414 1.414-1 1c-.456.457-.707 1.063-.707 1.708v.172c0 .16.016.318.047.472z" fill="#4d5d7a"/></g><g><path d="m34.586 34h-.172c-1.179 0-2.287-.459-3.121-1.292l-1-1 1.414-1.414 1 1c.456.455 1.063.706 1.707.706h.172c.16 0 .317-.016.472-.047l.395 1.961c-.285.057-.576.086-.867.086z" fill="#4d5d7a"/></g><g><path d="m42.293 33.707-1-1c-.456-.456-1.063-.707-1.707-.707h-.172c-.154 0-.309.015-.458.044l-.381-1.964c.275-.053.558-.08.839-.08h.172c1.179 0 2.287.459 3.121 1.292l1 1z" fill="#4d5d7a"/></g><g><path d="m33.465 36.536h-1.415v-2h1.415c.645 0 1.251-.251 1.707-.708l.119-.12c.115-.115.217-.239.305-.37l1.662 1.111c-.161.241-.346.467-.551.671l-.119.12c-.836.837-1.944 1.296-3.123 1.296z" fill="#4d5d7a"/></g><g><path d="m38.414 30.648-1.656-1.12c.158-.234.339-.453.536-.65l.118-.119c.836-.835 1.944-1.294 3.123-1.294h1.415v2h-1.415c-.645 0-1.251.251-1.707.708l-.119.12c-.112.11-.209.228-.295.355z" fill="#4d5d7a"/></g><g><path d="m34.552 32.259c-.24-.16-.467-.346-.673-.552l-.121-.121c-.834-.833-1.293-1.942-1.293-3.122v-1.414h2v1.414c0 .645.251 1.251.707 1.708l.121.121c.113.113.235.214.366.301z" fill="#4d5d7a"/></g><g><path d="m41.535 36.95h-2v-1.414c0-.645-.251-1.251-.707-1.708l-.121-.121c-.109-.11-.229-.208-.354-.292l1.119-1.658c.234.158.453.339.65.537l.12.12c.834.833 1.293 1.942 1.293 3.122z" fill="#4d5d7a"/></g><g><path d="m37 35c-1.654 0-3-1.346-3-3s1.346-3 3-3 3 1.346 3 3-1.346 3-3 3zm0-4c-.552 0-1 .449-1 1s.448 1 1 1 1-.449 1-1-.448-1-1-1z" fill="#a8b0bc"/></g><g><path d="m37 39c-3.859 0-7-3.14-7-7s3.141-7 7-7 7 3.14 7 7-3.141 7-7 7zm0-12c-2.757 0-5 2.243-5 5s2.243 5 5 5 5-2.243 5-5-2.243-5-5-5z" fill="#fff"/></g><path d="m6 19h-4v14h4" fill="#3d98f7"/><g><path d="m10 48h-4c-.553 0-1-.448-1-1v-31h-4v-2h5c.553 0 1 .448 1 1v31h3z" fill="#4d5d7a"/></g><g><path d="m15 21h2v3h-2z" fill="#c7e2fc"/></g><g><path d="m18 21h2v3h-2z" fill="#c7e2fc"/></g><g><path d="m21 21h2v3h-2z" fill="#c7e2fc"/></g><g><path d="m12 30h3v2h-3z" fill="#c7e2fc"/></g><g><path d="m12 27h3v2h-3z" fill="#c7e2fc"/></g><g><path d="m12 24h3v2h-3z" fill="#c7e2fc"/></g><g><path d="m48 30h3v2h-3z" fill="#c7e2fc"/></g><g><path d="m48 27h3v2h-3z" fill="#c7e2fc"/></g><g><path d="m48 24h3v2h-3z" fill="#c7e2fc"/></g><g><path d="m55 30h3v2h-3z" fill="#c7e2fc"/></g><g><path d="m55 27h3v2h-3z" fill="#c7e2fc"/></g><g><path d="m55 24h3v2h-3z" fill="#c7e2fc"/></g><g><path d="m21 32h2v3h-2z" fill="#c7e2fc"/></g><g><path d="m18 32h2v3h-2z" fill="#c7e2fc"/></g><g><path d="m15 32h2v3h-2z" fill="#c7e2fc"/></g><g><path d="m23 24h3v2h-3z" fill="#c7e2fc"/></g><g><path d="m23 27h3v2h-3z" fill="#c7e2fc"/></g><g><path d="m23 30h3v2h-3z" fill="#c7e2fc"/></g><g><path d="m12 42h3v2h-3z" fill="#c7e2fc"/></g><g><path d="m12 39h3v2h-3z" fill="#c7e2fc"/></g><g><path d="m12 36h3v2h-3z" fill="#c7e2fc"/></g><g><path d="m21 44h2v3h-2z" fill="#c7e2fc"/></g><g><path d="m18 44h2v3h-2z" fill="#c7e2fc"/></g><g><path d="m15 44h2v3h-2z" fill="#c7e2fc"/></g><g><path d="m23 36h3v2h-3z" fill="#c7e2fc"/></g><g><path d="m23 39h3v2h-3z" fill="#c7e2fc"/></g><g><path d="m23 42h3v2h-3z" fill="#c7e2fc"/></g><g><path d="m52 21h2v3h-2z" fill="#c7e2fc"/></g><g><path d="m52 32h2v3h-2z" fill="#c7e2fc"/></g><g><path d="m48 42h3v2h-3z" fill="#c7e2fc"/></g><g><path d="m48 39h3v2h-3z" fill="#c7e2fc"/></g><g><path d="m48 36h3v2h-3z" fill="#c7e2fc"/></g><g><path d="m55 42h3v2h-3z" fill="#c7e2fc"/></g><g><path d="m55 39h3v2h-3z" fill="#c7e2fc"/></g><g><path d="m55 36h3v2h-3z" fill="#c7e2fc"/></g><g><path d="m52 44h2v3h-2z" fill="#c7e2fc"/></g></g></svg>